<?xml version="1.0" encoding="utf-8"?>
<!-- Generator: Adobe Illustrator 25.2.0, SVG Export Plug-In . SVG Version: 6.00 Build 0)  -->
<svg version="1.1" id="Capa_1" xmlns="http://www.w3.org/2000/svg" xmlns:xlink="http://www.w3.org/1999/xlink" x="0px" y="0px"
	 viewBox="0 0 64 64" style="enable-background:new 0 0 64 64;" xml:space="preserve">
<style type="text/css">
	.st0{fill-rule:evenodd;clip-rule:evenodd;fill:#FFBDBC;}
	.st1{fill-rule:evenodd;clip-rule:evenodd;fill:#FFEA60;}
	.st2{fill-rule:evenodd;clip-rule:evenodd;fill:#FFF2A0;}
	.st3{fill-rule:evenodd;clip-rule:evenodd;fill:#FAF7F5;}
	.st4{fill-rule:evenodd;clip-rule:evenodd;fill:#EBDDD9;}
	.st5{fill-rule:evenodd;clip-rule:evenodd;fill:#FF7B79;}
</style>
<g>
	<g>
		<path class="st0" d="M46.9,18.9h-7.6H32h-15c8.5,0,15.4,6.7,15.8,15.1c0.5,0.2,1,0.3,1.6,0.3c2.3,0,4.2-1.9,4.2-4.2v-1
			c0-2,1.6-3.6,3.6-3.6c2,0,3.6,1.6,3.6,3.6v5.2c0,2.3,1.9,4.2,4.2,4.2c2.3,0,4.2-1.9,4.2-4.2c0-4.3,0.9-5.8,7-5.8
			C59,22.8,53.4,18.9,46.9,18.9L46.9,18.9z"/>
	</g>
	<g>
		<path class="st1" d="M38.6,30.1c0,2.3-1.9,4.2-4.2,4.2c-0.5,0-1.1-0.1-1.6-0.3c0,0.2,0,0.5,0,0.7c0,5.5-3.4,10.2-8.3,12h29.9
			c4.8-1.8,8.3-6.5,8.3-12c0-2.2-0.5-4.4-1.3-6.3c-6.1,0-7,1.5-7,5.8c0,2.3-1.9,4.2-4.2,4.2c-2.3,0-4.2-1.9-4.2-4.2v-5.2
			c0-2-1.6-3.6-3.6-3.6c-2,0-3.6,1.6-3.6,3.6V30.1z"/>
	</g>
	<g>
		<path class="st2" d="M32.8,34c-0.4-8.4-7.3-15.1-15.8-15.1C8.3,18.9,1.3,26,1.3,34.7c0,1.6,1.3,2.9,2.9,2.9s2.9-1.3,2.9-2.9
			c0,5.5,3.4,10.2,8.3,12h9.1c4.8-1.8,8.3-6.5,8.3-12C32.9,34.5,32.9,34.2,32.8,34L32.8,34z"/>
	</g>
	<g>
		<path class="st3" d="M24.6,46.7h-9.1H1.3c0.7,1.9,1.5,5.7,3.3,5.7h8.7h37.5h8.7c1.8,0,2.6-3.8,3.3-5.7h-8.3H24.6z"/>
	</g>
	<g>
		<path class="st4" d="M50.7,52.5H13.3c1,2.2,1,5.2,3.5,5.2h30.5C49.7,57.7,49.8,54.6,50.7,52.5L50.7,52.5z"/>
	</g>
	<g>
		<path class="st5" d="M35.7,10.7c-2.7,0-4.9,2.2-4.9,4.9c0,1.3,0.5,2.4,1.3,3.3h7.3c0.8-0.9,1.3-2,1.3-3.3
			C40.6,12.9,38.4,10.7,35.7,10.7z"/>
	</g>
	<g>
		<path d="M62.8,45.5H59c0.9-0.8,1.7-1.7,2.4-2.7c1.7-2.4,2.6-5.2,2.6-8.1c0-2.4-0.5-4.6-1.4-6.7c0-0.1,0-0.1-0.1-0.2
			c-2.7-6-8.6-10.2-15.6-10.2h-5.4c0.2-0.7,0.3-1.3,0.3-2c0-2.9-2-5.4-4.8-6C37.4,8.5,38,7.9,39,7.4c0.6-0.3,0.9-1.1,0.6-1.7
			c-0.3-0.6-1.1-0.9-1.7-0.6c-1.9,1-3,2.3-3.3,4.4c-2.9,0.5-5,3-5,6.1c0,0.7,0.1,1.4,0.4,2H17.1C7.7,17.7,0,25.3,0,34.7
			c0,2.3,1.9,4.2,4.2,4.2c0.8,0,1.5-0.2,2.2-0.6c0.4,1.6,1.1,3.1,2.1,4.5c0.7,1,1.5,1.9,2.4,2.7H1.3c-0.4,0-0.8,0.2-1,0.5
			c-0.2,0.3-0.3,0.8-0.2,1.1c0.1,0.3,0.2,0.6,0.3,1c0.8,2.5,1.8,5.5,4.1,5.5h7.8c0.1,0.3,0.2,0.6,0.3,0.9c0.6,1.8,1.3,4.3,4.1,4.3
			h30.5c2.8,0,3.5-2.5,4.1-4.3c0.1-0.3,0.2-0.6,0.3-0.9h7.8c2.4,0,3.4-3.1,4.1-5.5c0.1-0.4,0.2-0.7,0.3-1c0.1-0.4,0.1-0.8-0.2-1.1
			C63.5,45.7,63.2,45.5,62.8,45.5L62.8,45.5z M54.2,45.5H29.1c0.9-0.8,1.7-1.7,2.4-2.7c1.5-2.2,2.4-4.7,2.5-7.3c0.1,0,0.2,0,0.3,0
			c3,0,5.5-2.5,5.5-5.5v-1c0-1.3,1.1-2.4,2.4-2.4c1.3,0,2.4,1.1,2.4,2.4v5.2c0,3,2.5,5.5,5.5,5.5c3,0,5.5-2.5,5.5-5.5
			c0-2,0.2-3,0.8-3.6c0.6-0.6,2-0.9,4.1-1c0.6,1.6,0.9,3.3,0.9,5C61.5,39.4,58.6,43.7,54.2,45.5z M32,15.6c0-2,1.6-3.7,3.7-3.7
			c2,0,3.7,1.6,3.7,3.7c0,0.7-0.2,1.4-0.6,2h-6.1C32.2,17.1,32,16.4,32,15.6z M46.9,20.2c5.3,0,9.9,2.8,12.5,7.1
			c-2.3,0.2-3.7,0.7-4.7,1.6c-1.4,1.2-1.6,3.1-1.6,5.4c0,1.6-1.3,3-3,3c-1.6,0-3-1.3-3-3v-5.2c0-2.7-2.2-4.9-4.9-4.9
			c-2.7,0-4.9,2.2-4.9,4.9v1c0,1.6-1.3,3-3,3c-0.1,0-0.2,0-0.4,0c-0.5-5.4-3.6-10.1-8.1-12.8L46.9,20.2z M8.4,34.7
			c0-4.8,3.9-8.7,8.7-8.7c4.8,0,8.7,3.9,8.7,8.7c0,3.2-2.6,5.7-5.7,5.7c-3.2,0-5.7-2.6-5.7-5.7c0-1.6,1.2-2.8,2.8-2.8
			c1.5,0,2.8,1.2,2.8,2.8c0,0.7,0.6,1.2,1.2,1.2s1.2-0.6,1.2-1.2c0-2.9-2.4-5.3-5.3-5.3c-3,0-5.3,2.3-5.3,5.3c0,4.5,3.7,8.2,8.2,8.2
			c4.5,0,8.2-3.7,8.2-8.2c0-6.2-5-11.2-11.2-11.2c-6.2,0-11.2,5-11.2,11.2c0,0.9-0.8,1.7-1.7,1.7s-1.7-0.8-1.7-1.7
			c0-8,6.5-14.5,14.6-14.5c7.8,0,14.2,6.1,14.5,13.8c0,0,0,0,0,0c0,0.2,0,0.4,0,0.7c0,4.7-2.9,9-7.3,10.8h-8.7
			C11.3,43.7,8.4,39.4,8.4,34.7z M60.2,50.1c-0.5,1-0.8,1.1-0.8,1.1h-8.7c0,0,0,0,0,0H37.6c-0.7,0-1.2,0.6-1.2,1.2s0.6,1.2,1.2,1.2
			H49c0,0.1,0,0.1,0,0.2c-0.6,2-0.9,2.6-1.7,2.6H16.8c-0.8,0-1.1-0.6-1.7-2.6c0-0.1,0-0.1-0.1-0.2h11.4c0.7,0,1.2-0.6,1.2-1.2
			s-0.6-1.2-1.2-1.2l-13.1,0c0,0,0,0,0,0l-8.7,0c0,0-0.3-0.1-0.8-1.1C3.5,49.5,3.2,48.7,3,48h21.6c0,0,0,0,0,0c0,0,0,0,0,0h29.9
			c0,0,0,0,0,0c0,0,0,0,0,0H61C60.8,48.7,60.5,49.5,60.2,50.1L60.2,50.1z"/>
		<path d="M32,51.2c-0.7,0-1.2,0.6-1.2,1.2s0.6,1.2,1.2,1.2h0c0.7,0,1.2-0.6,1.2-1.2S32.7,51.2,32,51.2L32,51.2z"/>
	</g>
</g>
</svg>
