<?xml version="1.0" encoding="utf-8"?>
<!-- Generator: Adobe Illustrator 25.2.0, SVG Export Plug-In . SVG Version: 6.00 Build 0)  -->
<svg version="1.1" id="Capa_1" xmlns="http://www.w3.org/2000/svg" xmlns:xlink="http://www.w3.org/1999/xlink" x="0px" y="0px"
	 viewBox="0 0 64 64" style="enable-background:new 0 0 64 64;" xml:space="preserve">
<style type="text/css">
	.st0{fill:#FF9EB1;}
	.st1{fill:#FFF2A0;}
	.st2{fill:#FFF7BF;}
	.st3{fill:#FAF7F5;}
	.st4{fill:#FF7D97;}
</style>
<g>
	<g>
		<g>
			<g>
				<path class="st0" d="M33.5,11.1c-6.3-4.7-3.2-9.7-3.2-9.7S18.4,2.3,19.1,11.7c0.1,0.9,0.3,1.8,0.6,2.5h-0.4
					c-2.4,0-6.9,2.6-5.6,9l-0.4,0c-3.7,1.6-4.5,3.8-4.5,6.1c0,2.4,1.2,4.4,3,5.6l-0.1-0.3h40.6l-0.1,0.8c5.6-9.2,2.7-14.1-2.4-17.3"
					/>
			</g>
		</g>
		<g>
			<g>
				<path class="st1" d="M25.6,62.7h-4.9c-2.3,0-4.3-1.7-4.7-3.9l-4.3-24.1h11.4L25.6,62.7z"/>
			</g>
		</g>
		<g>
			<g>
				<path class="st2" d="M32,34.6h8.9l-2.5,28H32"/>
			</g>
		</g>
		<g>
			<g>
				<path class="st1" d="M43.3,62.7h-4.9l2.5-28h11.4L48,58.7C47.6,61,45.6,62.7,43.3,62.7z"/>
			</g>
		</g>
		<g>
			<g>
				<path class="st2" d="M32,62.7h-6.4l-2.5-28H32"/>
			</g>
		</g>
		<g>
			<g>
				<path class="st3" d="M44.9,14.5c0-3.5-2.7-6-6.1-6c-3.5,0-6.3,2.8-6.3,6.3s2.8,6.3,6.3,6.3c0.5,0,0.8-0.1,1.3-0.2"/>
			</g>
			<g>
				<g>
					<g>
						<g>
							<circle class="st4" cx="45" cy="19.6" r="4.8"/>
						</g>
					</g>
				</g>
			</g>
		</g>
	</g>
	<g>
		<g>
			<g>
				<path d="M32,42.2c-0.5,0-1-0.3-1.2-0.8c-0.2-0.5,0-1,0.4-1.4c0.4-0.3,1-0.4,1.5-0.1c0.4,0.3,0.7,0.8,0.6,1.3
					C33.1,41.8,32.6,42.2,32,42.2L32,42.2z"/>
			</g>
		</g>
		<path d="M56.2,24.2c-0.7-2.8-2.5-5.1-5.6-7.1c-0.8-1.9-2.5-3.3-4.5-3.6c-0.2-1.6-0.9-3.1-2.1-4.3c-1.4-1.3-3.2-2.1-5.2-2.1
			c-2.1,0-4,0.8-5.3,2.2c-1.7-1.5-2.6-3.2-2.7-4.9C30.7,3,31.3,2,31.3,2c0.2-0.4,0.2-0.9,0-1.3s-0.7-0.6-1.2-0.6
			c-0.1,0-3.2,0.3-6.3,1.8c-4.2,2.1-6.3,5.5-6,9.9c0,0.5,0.1,0.9,0.2,1.4c-1.3,0.3-2.8,1.1-4,2.5c-1,1.3-2.1,3.4-1.8,6.7
			c-3.2,1.5-4.7,3.8-4.7,7c0,2.5,1.1,4.8,3.1,6.3l4.1,23.3c0.5,2.9,3,5,5.9,5h22.6c2.9,0,5.4-2.1,5.9-5l4.1-23.1
			C56.1,31.4,57,27.6,56.2,24.2L56.2,24.2z M48.6,19.6c0,2-1.6,3.6-3.6,3.6c-2,0-3.6-1.6-3.6-3.6c0-2,1.6-3.6,3.6-3.6
			C47,15.9,48.6,17.6,48.6,19.6z M38.7,9.7c2.5,0,4.4,1.6,4.8,3.9c-2.7,0.6-4.7,3.1-4.7,5.9c0,0.1,0,0.1,0,0.2c0,0-0.1,0-0.2,0
			c-2.8,0-5-2.2-5-5S36,9.7,38.7,9.7L38.7,9.7z M13.5,24.5c0.1,0,18.1,0,18.1,0c0.7,0,1.2-0.6,1.2-1.2c0-0.7-0.6-1.2-1.2-1.2H14.7
			c-0.2-1.9,0.2-3.5,1.2-4.8c1-1.2,2.4-1.8,3.3-1.8h5.1c0.7,0,1.2-0.6,1.2-1.2c0-0.7-0.6-1.2-1.2-1.2h-3.8c-0.1-0.4-0.2-0.9-0.2-1.4
			c-0.2-3.3,1.3-5.8,4.6-7.5c1.2-0.6,2.5-1,3.5-1.2c-0.1,0.5-0.1,1-0.1,1.5c0,1.8,0.7,4.4,3.7,7c-0.5,1-0.7,2.1-0.7,3.2
			c0,4.1,3.4,7.5,7.5,7.5c0.3,0,0.5,0,0.7,0c1,2.1,3.1,3.5,5.5,3.5c3,0,5.5-2.2,6-5.1c1.5,1.3,2.4,2.7,2.8,4.3
			c0.6,2.4-0.1,5.2-1.9,8.6H11.7c-1.1-1-1.7-2.4-1.7-4C10,27.7,10.5,25.9,13.5,24.5z M32,45.4c-0.7,0-1.2,0.6-1.2,1.2v14.8h-4
			l-2.3-25.5h15.1l-2.3,25.5h-4V46.7C33.2,46,32.7,45.4,32,45.4L32,45.4z M20.7,61.4c-1.7,0-3.2-1.2-3.5-2.9l-4-22.6h8.8l2.3,25.5
			H20.7z M46.8,58.5c-0.3,1.7-1.8,2.9-3.5,2.9h-3.5L42,35.9h8.8L46.8,58.5z"/>
	</g>
</g>
</svg>
